<svg width="240" height="80" viewBox="0 0 240 80" fill="none" xmlns="http://www.w3.org/2000/svg">
<path d="M162.48 49.94V53H150.276C148.068 53 146.328 52.712 145.056 52.136C143.784 51.56 142.86 50.612 142.284 49.292C141.708 47.972 141.42 46.148 141.42 43.82C141.42 41.54 141.696 39.74 142.248 38.42C142.8 37.076 143.7 36.116 144.948 35.54C146.196 34.94 147.912 34.64 150.096 34.64C151.152 34.64 152.604 34.688 154.452 34.784C156.3 34.88 157.644 34.976 158.484 35.072V49.94H162.48ZM144.84 43.784C144.84 45.344 145.02 46.568 145.38 47.456C145.764 48.344 146.376 48.98 147.216 49.364C148.056 49.748 149.208 49.94 150.672 49.94H155.1V37.952C153.18 37.808 151.656 37.736 150.528 37.736C149.112 37.736 147.984 37.94 147.144 38.348C146.328 38.732 145.74 39.368 145.38 40.256C145.02 41.12 144.84 42.296 144.84 43.784ZM147 28.16H150.06V31.652H147V28.16ZM151.824 28.16H154.848V31.652H151.824V28.16ZM190.92 49.94V53H162.48V49.94H165.756V27.368H169.176V42.236C170.712 39.86 172.272 38 173.856 36.656C175.44 35.312 177.336 34.64 179.544 34.64C181.128 34.64 182.52 35.012 183.72 35.756C184.944 36.476 185.904 37.532 186.6 38.924C187.296 40.316 187.644 41.996 187.644 43.964V49.94H190.92ZM178.824 37.7C177.168 37.7 175.596 38.408 174.108 39.824C172.644 41.216 171.456 42.836 170.544 44.684C169.632 46.508 169.176 47.912 169.176 48.896V49.94H184.26V44.216C184.26 42.8 183.996 41.6 183.468 40.616C182.964 39.632 182.292 38.9 181.452 38.42C180.636 37.94 179.76 37.7 178.824 37.7ZM221.845 49.94V53H211.621C210.133 53 208.801 52.52 207.625 51.56C206.737 52.52 205.573 53 204.133 53H190.921V49.94H196.645V36.8H200.065V49.94H203.017C204.073 49.94 204.841 49.496 205.321 48.608C205.825 47.72 206.077 46.604 206.077 45.26V36.8H209.497V45.224C209.497 46.592 209.341 47.816 209.029 48.896C209.365 49.16 209.773 49.4 210.253 49.616C210.733 49.832 211.213 49.94 211.693 49.94H215.149V42.992C215.149 41.312 214.957 38.684 214.573 35.108L217.453 35C217.741 36.416 217.993 37.904 218.209 39.464C218.449 41 218.569 42.176 218.569 42.992V49.94H221.845ZM230.642 35V53H221.858V49.94H227.222V35H230.642ZM227.33 55.88H230.606V59.408H227.33V55.88Z" fill="#E96958"/>
<path d="M5.85339 28.232H15.0694C17.6134 28.232 19.4854 28.748 20.6854 29.78C21.9094 30.812 22.5214 32.456 22.5214 34.712C22.5214 36.128 22.2814 37.268 21.8014 38.132C21.3214 38.972 20.5534 39.668 19.4974 40.22C20.7454 40.7 21.6694 41.408 22.2694 42.344C22.8934 43.28 23.2054 44.528 23.2054 46.088C23.2054 50.696 20.6134 53 15.4294 53H5.85339V28.232ZM15.0694 38.96C16.4134 38.96 17.4094 38.636 18.0574 37.988C18.7054 37.34 19.0294 36.356 19.0294 35.036C19.0294 33.716 18.6934 32.756 18.0214 32.156C17.3494 31.532 16.3054 31.22 14.8894 31.22H9.30939V38.96H15.0694ZM15.2854 49.976C16.7494 49.976 17.8534 49.676 18.5974 49.076C19.3414 48.476 19.7134 47.468 19.7134 46.052C19.7134 43.316 18.1894 41.948 15.1414 41.948H9.30939V49.976H15.2854ZM31.5667 53.396C29.8627 53.396 28.5667 52.916 27.6787 51.956C26.7907 50.996 26.3467 49.616 26.3467 47.816C26.3467 46.04 26.8027 44.744 27.7147 43.928C28.6267 43.088 30.0787 42.572 32.0707 42.38L37.1827 41.912V40.508C37.1827 39.452 36.9547 38.696 36.4987 38.24C36.0427 37.76 35.3707 37.52 34.4827 37.52C32.4667 37.52 30.1387 37.664 27.4987 37.952L27.3907 35.504C29.9347 34.904 32.2987 34.604 34.4827 34.604C36.5947 34.604 38.1307 35.084 39.0907 36.044C40.0507 36.98 40.5307 38.468 40.5307 40.508V49.184C40.5787 49.664 40.7347 50.036 40.9987 50.3C41.2867 50.54 41.7307 50.708 42.3307 50.804L42.2227 53.396C41.1907 53.396 40.3147 53.276 39.5947 53.036C38.8747 52.82 38.2387 52.472 37.6867 51.992C35.6467 52.928 33.6067 53.396 31.5667 53.396ZM32.1787 50.588C33.6427 50.588 35.0587 50.36 36.4267 49.904L37.1827 49.652V44.36L32.5027 44.792C31.5667 44.888 30.8707 45.176 30.4147 45.656C29.9827 46.112 29.7667 46.796 29.7667 47.708C29.7667 49.628 30.5707 50.588 32.1787 50.588ZM51.4713 53.396C50.0793 53.396 48.2673 53.204 46.0353 52.82L44.9553 52.64L45.0993 49.76C48.0033 50.168 50.0793 50.372 51.3273 50.372C52.5993 50.372 53.5593 50.18 54.2073 49.796C54.8553 49.412 55.1793 48.788 55.1793 47.924C55.1793 47.3 55.0113 46.832 54.6753 46.52C54.3633 46.184 53.9553 45.944 53.4513 45.8C52.9473 45.632 52.2273 45.476 51.2913 45.332L50.4273 45.188C49.0593 44.972 47.9673 44.696 47.1513 44.36C46.3593 44.024 45.7473 43.532 45.3153 42.884C44.8833 42.236 44.6673 41.348 44.6673 40.22C44.6673 36.5 46.9473 34.64 51.5073 34.64C52.9473 34.64 54.7473 34.82 56.9073 35.18L57.9513 35.396L57.8793 38.204C55.1913 37.82 53.1273 37.628 51.6873 37.628C49.2393 37.628 48.0153 38.372 48.0153 39.86C48.0153 40.412 48.1713 40.844 48.4833 41.156C48.7953 41.444 49.1913 41.66 49.6713 41.804C50.1753 41.948 50.8833 42.104 51.7953 42.272C51.9633 42.296 52.2993 42.356 52.8033 42.452C54.2193 42.716 55.3233 43.028 56.1153 43.388C56.9313 43.724 57.5313 44.228 57.9153 44.9C58.3233 45.572 58.5273 46.484 58.5273 47.636C58.5273 49.628 57.9513 51.092 56.7993 52.028C55.6473 52.94 53.8713 53.396 51.4713 53.396ZM68.276 53.396C67.004 53.396 66.008 53.192 65.288 52.784C64.592 52.376 64.088 51.692 63.776 50.732C63.464 49.772 63.308 48.44 63.308 46.736V37.88H60.896V35H63.308V29.636H66.656V35H71.948V37.88H66.656V46.124C66.656 47.252 66.692 48.104 66.764 48.68C66.86 49.232 67.064 49.664 67.376 49.976C67.688 50.264 68.192 50.408 68.888 50.408L71.948 50.228L72.164 52.964C70.484 53.252 69.188 53.396 68.276 53.396ZM81.0729 53.396C79.8009 53.396 78.8049 53.192 78.0849 52.784C77.3889 52.376 76.8849 51.692 76.5729 50.732C76.2609 49.772 76.1049 48.44 76.1049 46.736V37.88H73.6929V35H76.1049V29.636H79.4529V35H84.7449V37.88H79.4529V46.124C79.4529 47.252 79.4889 48.104 79.5609 48.68C79.6569 49.232 79.8609 49.664 80.1729 49.976C80.4849 50.264 80.9889 50.408 81.6849 50.408L84.7449 50.228L84.9609 52.964C83.2809 53.252 81.9849 53.396 81.0729 53.396ZM92.1057 53.396C90.4017 53.396 89.1057 52.916 88.2177 51.956C87.3297 50.996 86.8857 49.616 86.8857 47.816C86.8857 46.04 87.3417 44.744 88.2537 43.928C89.1657 43.088 90.6177 42.572 92.6097 42.38L97.7217 41.912V40.508C97.7217 39.452 97.4937 38.696 97.0377 38.24C96.5817 37.76 95.9097 37.52 95.0217 37.52C93.0057 37.52 90.6777 37.664 88.0377 37.952L87.9297 35.504C90.4737 34.904 92.8377 34.604 95.0217 34.604C97.1337 34.604 98.6697 35.084 99.6297 36.044C100.59 36.98 101.07 38.468 101.07 40.508V49.184C101.118 49.664 101.274 50.036 101.538 50.3C101.826 50.54 102.27 50.708 102.87 50.804L102.762 53.396C101.73 53.396 100.854 53.276 100.134 53.036C99.4137 52.82 98.7777 52.472 98.2257 51.992C96.1857 52.928 94.1457 53.396 92.1057 53.396ZM92.7177 50.588C94.1817 50.588 95.5977 50.36 96.9657 49.904L97.7217 49.652V44.36L93.0417 44.792C92.1057 44.888 91.4097 45.176 90.9537 45.656C90.5217 46.112 90.3057 46.796 90.3057 47.708C90.3057 49.628 91.1097 50.588 92.7177 50.588Z" fill="white"/>
<line x1="121" y1="10" x2="121" y2="40" stroke="white" stroke-width="2"/>
<line x1="121" y1="40" x2="121" y2="70" stroke="#E96958" stroke-width="2"/>
</svg>
