<?xml version="1.0" encoding="iso-8859-1"?>
<!-- Generator: Adobe Illustrator 19.0.0, SVG Export Plug-In . SVG Version: 6.00 Build 0)  -->
<svg version="1.1" id="Layer_1" xmlns="http://www.w3.org/2000/svg" xmlns:xlink="http://www.w3.org/1999/xlink" x="0px" y="0px"
	 viewBox="0 0 502 502" style="enable-background:new 0 0 502 502;" xml:space="preserve">
<g>
	<g>
		<g>
			<path style="fill:#1a6e9a;" d="M104.261,259.972c-22.089,0-40.06,17.971-40.06,40.06s17.971,40.059,40.06,40.059s40.06-17.97,40.06-40.059
				S126.35,259.972,104.261,259.972z M104.261,320.091c-11.061,0-20.06-8.999-20.06-20.059c0-11.061,8.999-20.06,20.06-20.06
				c11.061,0,20.06,8.999,20.06,20.06C124.32,311.092,115.321,320.091,104.261,320.091z"/>
			<path style="fill:#1a6e9a;" d="M397.997,259.972c-22.089,0-40.06,17.971-40.06,40.06s17.971,40.059,40.06,40.059s40.06-17.97,40.06-40.059
				S420.086,259.972,397.997,259.972z M397.997,320.091c-11.061,0-20.06-8.999-20.06-20.059c0-11.061,8.999-20.06,20.06-20.06
				c11.061,0,20.06,8.999,20.06,20.06S409.058,320.091,397.997,320.091z"/>
			<path style="fill:#1a6e9a;" d="M264.874,65.448c0-5.523-4.478-10-10-10H103.977c-5.522,0-10,4.477-10,10s4.478,10,10,10h150.897
				C260.396,75.448,264.874,70.971,264.874,65.448z"/>
			<path style="fill:#1a6e9a;" d="M287.878,75.448h15.309c5.522,0,10-4.477,10-10s-4.478-10-10-10h-15.309c-5.522,0-10,4.477-10,10
				S282.355,75.448,287.878,75.448z"/>
			<path style="fill:#1a6e9a;" d="M302.703,334.742H199.297c-5.522,0-10,4.477-10,10s4.478,10,10,10h103.406c5.522,0,10-4.477,10-10
				S308.226,334.742,302.703,334.742z"/>
			<path style="fill:#1a6e9a;" d="M492,140.331h-43.596V70.984c0-27.821-22.635-50.456-50.456-50.456H104.052c-27.821,0-50.456,22.634-50.456,50.456
				v69.347H10c-5.522,0-10,4.477-10,10v38.818c0,5.523,4.478,10,10,10h11.51c-8.358,9.834-13.417,22.556-13.417,36.443v148.295
				c0,5.523,4.478,10,10,10h14.089v45.034c0,23.462,19.088,42.55,42.55,42.55h8.347c23.462,0,42.55-19.088,42.55-42.55v-45.034
				h246.565v45.034c0,23.462,19.088,42.55,42.551,42.55h8.346c23.462,0,42.55-19.088,42.55-42.55v-45.034h18.266
				c5.522,0,10-4.477,10-10V235.591c0-13.887-5.059-26.608-13.417-36.443H492c5.522,0,10-4.477,10-10v-38.818
				C502,144.809,497.522,140.331,492,140.331z M73.596,70.984c0-16.793,13.662-30.456,30.456-30.456h293.896
				c16.794,0,30.456,13.662,30.456,30.456v108.245h-87.877l48.381-13.649c5.29-1.587,8.292-7.162,6.705-12.452
				c-1.587-5.29-7.16-8.292-12.451-6.705L273.81,179.229h-93.741l48.747-13.833c5.29-1.587,8.292-7.162,6.705-12.452
				c-1.587-5.29-7.16-8.292-12.451-6.705l-109.964,32.99h-39.51V70.984z M20,179.149v-18.818h33.516v18.818H20z M83.079,461.47
				h-8.347c-12.434,0-22.55-10.116-22.55-22.55v-44.795h53.446v44.795h0.001C105.629,451.354,95.513,461.47,83.079,461.47z
				 M423.091,461.47h-8.346c-12.435,0-22.551-10.116-22.551-22.55v-44.795h53.446v44.795h0.001
				C445.641,451.354,435.525,461.47,423.091,461.47z M473.906,373.886H28.094V235.591c0-20.05,16.313-36.362,36.362-36.362h373.088
				c20.05,0,36.362,16.312,36.362,36.362V373.886z M482,179.148h-33.516v-18.818H482V179.148z"/>
		</g>
	</g>
</g>
<g>
</g>
<g>
</g>
<g>
</g>
<g>
</g>
<g>
</g>
<g>
</g>
<g>
</g>
<g>
</g>
<g>
</g>
<g>
</g>
<g>
</g>
<g>
</g>
<g>
</g>
<g>
</g>
<g>
</g>
</svg>
