<?xml version="1.0" encoding="iso-8859-1"?>
<!-- Generator: Adobe Illustrator 17.1.0, SVG Export Plug-In . SVG Version: 6.00 Build 0)  -->
<!DOCTYPE svg PUBLIC "-//W3C//DTD SVG 1.1//EN" "http://www.w3.org/Graphics/SVG/1.1/DTD/svg11.dtd">
<svg version="1.1" id="Capa_1" xmlns="http://www.w3.org/2000/svg" xmlns:xlink="http://www.w3.org/1999/xlink" x="0px" y="0px"
	 viewBox="0 0 357.25 357.25" style="enable-background:new 0 0 357.25 357.25;" xml:space="preserve">
<path style="fill:#1a6e9a;" d="M127.712,283.641c-40.053-19.423-65.933-60.717-65.933-105.201c0-39.34,19.617-75.8,52.475-97.531
	c4.146-2.742,5.284-8.326,2.542-12.472s-8.325-5.284-12.472-2.542c-1.855,1.228-3.673,2.494-5.455,3.801L81.093,54.779
	c-10.266-8.613-25.627-7.27-34.241,2.996L36.731,69.839c-4.164,4.961-6.145,11.261-5.579,17.74
	c0.567,6.48,3.612,12.341,8.573,16.502l17.807,14.943c-4.276,8.717-7.613,17.911-9.927,27.423H24.304
	C10.903,146.447,0,157.35,0,170.751v15.75c0,13.401,10.903,24.304,24.304,24.304h23.395c2.323,9.426,5.662,18.577,9.973,27.305
	l-17.944,15.059c-4.963,4.163-8.008,10.023-8.575,16.504c-0.566,6.479,1.415,12.779,5.577,17.737l10.123,12.068
	c4.801,5.72,11.696,8.668,18.638,8.668c5.514,0,11.059-1.862,15.604-5.674l18.01-15.113c6.503,4.752,13.445,8.933,20.753,12.477
	c4.473,2.167,9.856,0.301,12.025-4.171C134.052,291.193,132.184,285.809,127.712,283.641z M24.304,192.806
	c-3.476,0-6.304-2.828-6.304-6.304v-15.75c0-3.476,2.828-6.304,6.304-6.304H44.5c-0.478,4.618-0.721,9.287-0.721,13.992
	c0,4.82,0.255,9.614,0.76,14.366H24.304z M51.294,90.29c-1.277-1.071-2.062-2.591-2.21-4.279c-0.147-1.689,0.362-3.323,1.436-4.602
	l10.122-12.065c1.245-1.484,3.033-2.249,4.833-2.249c1.431,0,2.869,0.483,4.048,1.472L84.898,81.47
	c-6.863,6.624-12.958,13.911-18.219,21.731L51.294,90.29z M69.525,288.683c-2.665,2.235-6.651,1.886-8.884-0.774L50.519,275.84
	c-1.072-1.277-1.582-2.911-1.434-4.6c0.148-1.688,0.933-3.208,2.212-4.282l15.56-13.058c5.334,7.889,11.457,15.156,18.256,21.703
	L69.525,288.683z M332.946,146.447h-23.283c-2.309-9.528-5.642-18.729-9.916-27.446l17.778-14.919
	c10.265-8.613,11.609-23.974,2.996-34.242l-10.123-12.065c-8.614-10.266-23.975-11.61-34.241-2.996l-17.775,14.916
	c-2.349-1.721-4.766-3.376-7.243-4.959c-4.189-2.676-9.754-1.45-12.43,2.739c-2.676,4.189-1.45,9.754,2.739,12.43
	c33.826,21.611,54.021,58.446,54.021,98.535c0,45.388-26.627,87.036-67.836,106.104c-4.511,2.087-6.476,7.437-4.389,11.947
	c2.087,4.511,7.438,6.477,11.947,4.389c8.167-3.779,15.837-8.326,22.941-13.532l18.024,15.124c4.404,3.696,9.864,5.672,15.568,5.672
	c0.721,0,1.445-0.032,2.172-0.095c6.479-0.567,12.34-3.611,16.502-8.572l10.123-12.064c8.614-10.267,7.271-25.627-2.996-34.242
	l-18.023-15.125c4.278-8.657,7.641-17.785,9.994-27.24h23.449c13.401,0,24.304-10.903,24.304-24.304v-15.75
	C357.25,157.35,346.347,146.447,332.946,146.447z M305.956,266.958c2.663,2.235,3.012,6.22,0.777,8.884l-10.123,12.064
	c-1.072,1.277-2.592,2.062-4.281,2.209c-1.694,0.146-3.323-0.361-4.601-1.434l-15.625-13.111
	c6.833-6.601,12.938-13.892,18.225-21.728L305.956,266.958z M290.6,103.18c-5.261-7.814-11.365-15.1-18.235-21.72l15.363-12.891
	c2.663-2.234,6.647-1.886,8.882,0.776l10.122,12.064c2.235,2.664,1.887,6.65-0.776,8.885L290.6,103.18z M339.25,186.501
	c0,3.476-2.828,6.304-6.304,6.304h-20.251c0.512-4.74,0.773-9.536,0.773-14.366c0-4.707-0.242-9.377-0.716-13.992h20.193
	c3.476,0,6.304,2.828,6.304,6.304V186.501z M239.213,178.439c0-21.093-10.711-40.345-28.654-51.498
	c-4.221-2.624-5.516-8.173-2.892-12.395c2.624-4.22,8.173-5.517,12.395-2.892c23.263,14.46,37.151,39.426,37.151,66.785
	c0,18.602-6.619,36.647-18.636,50.813c-1.78,2.098-4.315,3.178-6.867,3.178c-2.058,0-4.126-0.702-5.818-2.137
	c-3.791-3.215-4.256-8.895-1.041-12.685C234.112,206.69,239.213,192.781,239.213,178.439z M133.413,218.772
	c3.311,3.708,2.988,9.397-0.72,12.708c-1.716,1.532-3.858,2.286-5.991,2.286c-2.475,0-4.939-1.015-6.717-3.006
	c-12.862-14.409-19.946-32.99-19.946-52.32c0-29.089,15.956-55.672,41.641-69.376c4.385-2.339,9.837-0.682,12.177,3.704
	c2.34,4.385,0.682,9.837-3.704,12.177c-19.808,10.568-32.113,31.066-32.113,53.495C118.039,193.343,123.499,207.667,133.413,218.772
	z M187.474,207.429c0.1-0.538,0.152-1.092,0.152-1.659V94.305l32.654-18.853c2.785-1.608,4.5-4.579,4.5-7.794V24.754
	c0-3.215-1.715-6.187-4.5-7.794L201.704,6.235c-4.304-2.485-9.81-1.011-12.294,3.294c-2.485,4.305-1.01,9.809,3.294,12.294
	l14.076,8.127v32.511l-28.154,16.255L150.47,62.462V29.951l14.078-8.127c4.305-2.485,5.78-7.989,3.295-12.294
	c-2.485-4.305-7.99-5.78-12.294-3.295L136.97,16.96c-2.785,1.607-4.5,4.579-4.5,7.794v42.904c0,3.215,1.715,6.187,4.5,7.794
	l32.656,18.853V205.77c0,0.567,0.052,1.121,0.152,1.659c-12.179,3.78-21.048,15.152-21.048,28.557v95.4
	c0,11.49,9.346,20.837,20.833,20.837h18.12c11.49,0,20.837-9.347,20.837-20.837v-95.4
	C208.521,222.581,199.652,211.209,187.474,207.429z M190.521,331.386c0,1.538-1.299,2.837-2.837,2.837h-18.12
	c-1.536,0-2.833-1.299-2.833-2.837v-95.4c0-6.558,5.336-11.893,11.896-11.893s11.896,5.335,11.896,11.893V331.386z"/>
<g>
</g>
<g>
</g>
<g>
</g>
<g>
</g>
<g>
</g>
<g>
</g>
<g>
</g>
<g>
</g>
<g>
</g>
<g>
</g>
<g>
</g>
<g>
</g>
<g>
</g>
<g>
</g>
<g>
</g>
</svg>
